{"title":"Joint Body 2011 VoDRip XviD HS","uid":7478693,"size":811855274,"categoryP":"video","categoryS":"movies","magnet":"?xt=urn:btih:21e3554ecbb1fc5d64cbb803bed79e2f2fcac421&amp;dn=Joint+Body+2011+VoDRip+XviD+HS&amp;tr=udp%3A%2F%2Ftracker.openbittorrent.com%3A80&amp;tr=udp%3A%2F%2Fopen.demonii.com%3A1337&amp;tr=udp%3A%2F%2Ftracker.coppersurfer.tk%3A6969&amp;tr=udp%3A%2F%2Fexodus.desync.com%3A6969","seeders":0,"leechers":1,"uploader":"HeroMaster","files":-1,"time":1343361969,"description":"Joint Body 2011 VoDRip XviD HS\n\n\nSource--- you dont have to know...\n\n &lt;a href=&quot;\nhttp://www.imdb.com/title/tt1628043/&quot; rel=&quot;nofollow&quot; target=&quot;_NEW&quot;&gt;\nhttp://www.imdb.com/title/tt1628043/&lt;/a&gt;\n\n\nFormat                                   : AVI\nFormat/Info                              : Audio Video Interleave\nFile size                                : 774 MiB\nDuration                                 : 1h 25mn\nOverall bit rate                         : 1 259 Kbps\nWriting application                      : Lavf52.103.0\n\nVideo\nID                                       : 1\nFormat                                   : MPEG-4 Visual\nFormat profile                           : Simple@L1\nFormat settings, BVOP                    : No\nFormat settings, QPel                    : No\nFormat settings, GMC                     : No warppoints\nFormat settings, Matrix                  : Default (H.263)\nCodec ID                                 : XVID\nDuration                                 : 1h 25mn\nBit rate                                 : 1 054 Kbps\nWidth                                    : 640 pixels\nHeight                                   : 270 pixels\nDisplay aspect ratio                     : 2.40:1\nFrame rate                               : 23.976 fps\nColor space                              : YUV\nChroma subsampling                       : 4:2:0\nBit depth                                : 8 bits\nScan type                                : Progressive\nCompression mode                         : Lossy\nBits/(Pixel*Frame)                       : 0.254\nStream size                              : 649 MiB (84%)\nWriting library                          : Lavc52.116.0\n\nAudio\nID                                       : 0\nFormat                                   : MPEG Audio\nFormat version                           : Version 1\nFormat profile                           : Layer 3\nMode                                     : Joint stereo\nMode extension                           : MS Stereo\nCodec ID                                 : 55\nCodec ID/Hint                            : MP3\nDuration                                 : 1h 25mn\nBit rate mode                            : Constant\nBit rate                                 : 192 Kbps\nChannel(s)                               : 2 channels\nSampling rate                            : 44.1 KHz\nCompression mode                         : Lossy\nStream size                              : 118 MiB (15%)\nAlignment                                : Aligned on interleaves\nInterleave, duration                     : 42 ms (1.00 video frame)\nWriting library                          : LAME3.98.4\n\n\nPoster:\n\n &lt;a href=&quot;\nhttp://i.imgur.com/qMo5s.jpg&quot; rel=&quot;nofollow&quot; target=&quot;_NEW&quot;&gt;\nhttp://i.imgur.com/qMo5s.jpg&lt;/a&gt;\n\n\nScreenshots:\n\n &lt;a href=&quot;\nhttp://i.imgur.com/UwQX2.png&quot; rel=&quot;nofollow&quot; target=&quot;_NEW&quot;&gt;\nhttp://i.imgur.com/UwQX2.png&lt;/a&gt;\n\n &lt;a href=&quot;\nhttp://i.imgur.com/lGcac.png&quot; rel=&quot;nofollow&quot; target=&quot;_NEW&quot;&gt;\nhttp://i.imgur.com/lGcac.png&lt;/a&gt;\n\n &lt;a href=&quot;\nhttp://i.imgur.com/tqrfP.png&quot; rel=&quot;nofollow&quot; target=&quot;_NEW&quot;&gt;\nhttp://i.imgur.com/tqrfP.png&lt;/a&gt;\n\n\nENJOY!","torrent":{"xt":"urn:btih:21e3554ecbb1fc5d64cbb803bed79e2f2fcac421","amp;dn":"Joint+Body+2011+VoDRip+XviD+HS","amp;tr":["udp%3A%2F%2Ftracker.openbittorrent.com%3A80","udp%3A%2F%2Fopen.demonii.com%3A1337","udp%3A%2F%2Ftracker.coppersurfer.tk%3A6969","udp%3A%2F%2Fexodus.desync.com%3A6969"],"infoHash":"21e3554ecbb1fc5d64cbb803bed79e2f2fcac421","infoHashBuffer":{"type":"Buffer","data":[33,227,85,78,203,177,252,93,100,203,184,3,190,215,158,47,47,202,196,33]},"announce":[],"urlList":[]}}